<svg xmlns="http://www.w3.org/2000/svg" width="24" height="24" viewBox="0 0 24 24" alt="social icon">
  <rect x="1.48" y="8.05" width="4.63" height="13.93"></rect>
  <path d="M6.42,3.74c0,1.33-1.01,2.41-2.62,2.41h-.03c-1.55,0-2.56-1.07-2.56-2.41S2.24,1.33,3.83,1.33s2.56,1.04,2.59,2.41Z" style="fill-rule: evenodd;"></path>
  <path d="M22.8,13.99v7.99h-4.63v-7.45c0-1.87-.67-3.15-2.35-3.15-1.28,0-2.04,.86-2.37,1.69-.12,.3-.15,.71-.15,1.13v7.78h-4.63s.06-12.62,0-13.93h4.63v1.97s-.02,.03-.03,.05h.03v-.05c.61-.95,1.71-2.3,4.17-2.3,3.05,0,5.33,1.99,5.33,6.27Z" style="fill-rule: evenodd;"></path>
</svg>
